<svg xmlns="http://www.w3.org/2000/svg" xmlns:xlink="http://www.w3.org/1999/xlink" width="228.723" height="98.927" viewBox="0 0 228.723 98.927">
  <defs>
    <clipPath id="clip-path">
      <rect id="Rectangle_2" data-name="Rectangle 2" width="225.605" height="98.927" fill="#1c1b1b"/>
    </clipPath>
  </defs>
  <g id="Group_143" data-name="Group 143" transform="translate(-175 -8.894)">
    <g id="Group_50" data-name="Group 50" transform="translate(178.118 8.894)">
      <g id="Group_3" data-name="Group 3" transform="translate(0 0)">
        <path id="Path_1" data-name="Path 1" d="M11.045,154.282,7.786,162.8l-3.327-8.519H.818v12.231H3.8v-7.666l2.666,7.666H9.041l2.648-7.648v7.648h2.979V154.282Z" transform="translate(-0.47 -88.635)" fill="#1c1b1b"/>
        <path id="Path_2" data-name="Path 2" d="M41.181,156.447v2.579h4.164v2.247H41.181v2.735h4.687V166.4H38.2V154.077h7.666v2.369Z" transform="translate(-21.947 -88.517)" fill="#1c1b1b"/>
        <g id="Group_2" data-name="Group 2">
          <g id="Group_1" data-name="Group 1" clip-path="url(#clip-path)">
            <path id="Path_3" data-name="Path 3" d="M70.494,163.424a5.433,5.433,0,0,1-2.23,2.187,7.115,7.115,0,0,1-3.424.784H60.188V154.077H64.84a7.235,7.235,0,0,1,3.433.767A5.351,5.351,0,0,1,70.494,157a7.034,7.034,0,0,1,0,6.42m-3.206-.618a3.969,3.969,0,0,0,0-5.192,3.765,3.765,0,0,0-2.709-.923H63.167v7.039h1.411a3.765,3.765,0,0,0,2.709-.923" transform="translate(-34.578 -88.517)" fill="#1c1b1b"/>
            <rect id="Rectangle_1" data-name="Rectangle 1" width="2.979" height="12.318" transform="translate(38.382 65.56)" fill="#1c1b1b"/>
            <path id="Path_4" data-name="Path 4" d="M108.467,164.265H103.85l-.767,2.247H99.947l4.512-12.231h3.432l4.512,12.231h-3.171ZM107.7,162l-1.534-4.53L104.616,162Z" transform="translate(-57.419 -88.635)" fill="#1c1b1b"/>
            <path id="Path_5" data-name="Path 5" d="M143.094,162.074v4.321h-2.979V154.077h4.826a4.687,4.687,0,0,1,3.345,1.089,3.851,3.851,0,0,1,1.15,2.936,4.045,4.045,0,0,1-.514,2.047,3.565,3.565,0,0,1-1.525,1.411,5.366,5.366,0,0,1-2.456.514Zm3.31-3.973q0-1.621-1.794-1.621h-1.516v3.206h1.516q1.794,0,1.794-1.585" transform="translate(-80.496 -88.517)" fill="#1c1b1b"/>
            <path id="Path_6" data-name="Path 6" d="M170.253,164.265h-4.617l-.767,2.247h-3.136l4.513-12.231h3.432l4.513,12.231H171.02ZM169.487,162l-1.534-4.53L166.4,162Z" transform="translate(-92.915 -88.635)" fill="#1c1b1b"/>
            <path id="Path_7" data-name="Path 7" d="M200.036,166.4l-2.665-4.652h-.68V166.4h-2.979V154.077H198.8a5.5,5.5,0,0,1,2.474.505,3.492,3.492,0,0,1,1.516,1.385,3.972,3.972,0,0,1,.505,2.012,3.578,3.578,0,0,1-.741,2.283,3.788,3.788,0,0,1-2.151,1.289l2.927,4.843Zm-3.345-6.691h1.847a1.861,1.861,0,0,0,1.307-.392,1.513,1.513,0,0,0,.418-1.159,1.537,1.537,0,0,0-.427-1.15,1.789,1.789,0,0,0-1.3-.418h-1.847Z" transform="translate(-111.287 -88.517)" fill="#1c1b1b"/>
            <path id="Path_8" data-name="Path 8" d="M227.523,154.077v2.369h-3.345v9.949h-3v-9.949H217.87v-2.369Z" transform="translate(-125.166 -88.517)" fill="#1c1b1b"/>
            <path id="Path_9" data-name="Path 9" d="M254.444,166.4h-2.979l-4.983-7.562V166.4H243.5V154.077h2.979l4.983,7.631v-7.631h2.979Z" transform="translate(-139.891 -88.517)" fill="#1c1b1b"/>
            <path id="Path_10" data-name="Path 10" d="M277.028,156.447v2.579h4.164v2.247h-4.164v2.735h4.687V166.4h-7.666V154.077h7.666v2.369Z" transform="translate(-157.44 -88.517)" fill="#1c1b1b"/>
            <path id="Path_11" data-name="Path 11" d="M302.36,166.4l-2.665-4.652h-.68V166.4h-2.979V154.077h5.087a5.5,5.5,0,0,1,2.474.505,3.492,3.492,0,0,1,1.516,1.385,3.972,3.972,0,0,1,.505,2.012,3.578,3.578,0,0,1-.741,2.283,3.788,3.788,0,0,1-2.151,1.289l2.927,4.843Zm-3.345-6.691h1.847a1.861,1.861,0,0,0,1.307-.392,1.513,1.513,0,0,0,.418-1.159,1.537,1.537,0,0,0-.427-1.15,1.789,1.789,0,0,0-1.3-.418h-1.847Z" transform="translate(-170.072 -88.517)" fill="#1c1b1b"/>
            <path id="Path_12" data-name="Path 12" d="M329.936,164.464a3.5,3.5,0,0,1-1.463,1.306,5.156,5.156,0,0,1-2.344.488,5.52,5.52,0,0,1-3.415-1.011,3.659,3.659,0,0,1-1.463-2.823h3.171a1.673,1.673,0,0,0,.5,1.1,1.528,1.528,0,0,0,1.089.4,1.265,1.265,0,0,0,.906-.314,1.1,1.1,0,0,0,.331-.836,1.078,1.078,0,0,0-.305-.784,2.386,2.386,0,0,0-.758-.514q-.453-.2-1.254-.479a15.365,15.365,0,0,1-1.908-.776,3.513,3.513,0,0,1-1.272-1.115,3.63,3.63,0,0,1,.026-3.824,3.544,3.544,0,0,1,1.542-1.228,5.63,5.63,0,0,1,2.256-.427,5.06,5.06,0,0,1,3.267.976,3.725,3.725,0,0,1,1.368,2.683h-3.223a1.66,1.66,0,0,0-.444-.967,1.309,1.309,0,0,0-.967-.357,1.246,1.246,0,0,0-.845.279,1.023,1.023,0,0,0-.323.819,1.041,1.041,0,0,0,.288.74,2.189,2.189,0,0,0,.723.5q.436.192,1.254.488a13.738,13.738,0,0,1,1.934.793,3.7,3.7,0,0,1,1.289,1.141,3.261,3.261,0,0,1,.54,1.951,3.4,3.4,0,0,1-.5,1.795" transform="translate(-184.538 -88.258)" fill="#1c1b1b"/>
            <path id="Path_13" data-name="Path 13" d="M274.181,50.8h50.8V0h-50.8Zm7.26-43.543h36.29v7.25H288.7v7.257h21.8v7.263H288.7v7.25H317.73v7.257h-36.29Z" transform="translate(-157.516)" fill="#1c1b1b"/>
            <path id="Path_14" data-name="Path 14" d="M410.822,50.8h50.8V0h-50.8Zm7.394-43.543h9.67l.061.094,8.291,12.841,8.6-12.935h9.284l-.055.079-12.53,18.011,12.688,18.187H444.9l-.061-.092-8.616-13-8.467,13.1h-9.543L431.056,25.4Z" transform="translate(-236.016)" fill="#1c1b1b"/>
            <path id="Path_15" data-name="Path 15" d="M186.007,34.153H171.455V48.66h14.552a7.254,7.254,0,0,0,0-14.507" transform="translate(-98.5 -19.621)" fill="#1c1b1b"/>
            <path id="Path_16" data-name="Path 16" d="M137.54,50.835h50.8V.036h-50.8ZM166.524,36.3H151.971v7.286h-7.25V7.3h21.8A14.557,14.557,0,0,1,181,21.9a14.379,14.379,0,0,1-14.475,14.4" transform="translate(-79.016 -0.021)" fill="#1c1b1b"/>
            <path id="Path_17" data-name="Path 17" d="M.9,50.835H51.7V.036H.9ZM21.952,7.3h8.766l13.747,36.29H37.046l-2.579-7.257H18l-2.142,7.257H8.15Z" transform="translate(-0.516 -0.021)" fill="#1c1b1b"/>
            <path id="Path_18" data-name="Path 18" d="M51.933,34.239,45.769,49.325H58.19Z" transform="translate(-26.294 -19.67)" fill="#1c1b1b"/>
            <text id="EST_1993_Reinvented_2020" data-name="EST 1993   |   Reinvented 2020" transform="translate(0 92.283)" fill="#1c1b1b" font-size="6" font-family="Poppins-Bold, Poppins" font-weight="700"><tspan x="0" y="0" xml:space="preserve">EST 1993   |   Reinvented 2020</tspan></text>
          </g>
        </g>
      </g>
    </g>
    <rect id="Rectangle_143" data-name="Rectangle 143" width="99" height="12" transform="translate(175 91.821)" fill="#fff"/>
  </g>
</svg>
