<?xml version="1.0" encoding="utf-8"?>
<!-- Generator: Adobe Illustrator 26.3.1, SVG Export Plug-In . SVG Version: 6.00 Build 0)  -->
<svg version="1.1" id="Layer_2_00000078036213718158053650000014857840000630904962_"
	 xmlns="http://www.w3.org/2000/svg" xmlns:xlink="http://www.w3.org/1999/xlink" x="0px" y="0px" viewBox="0 0 356.8 300.8"
	 style="enable-background:new 0 0 356.8 300.8;" xml:space="preserve">
<style type="text/css">
	.st0{fill:#3A394B;}
	.st1{fill:#00AE5F;}
</style>
<g>
	<g>
		<g>
			<path class="st0" d="M282.4,158.2l-51.8-25.9l-26.4-52.1h-0.6h-51.8h-0.6l-26.4,52.1l-51.8,25.9v52.4l52.1,26.4l25.9,51.8h1.1
				h51.3h1.1l11-22l-8-9.9c-4.4-4.4-4.4-11.6,0-16c1-1,2.2-1.8,3.4-2.3c-8.5-6.8-13.9-17.3-13.9-29c0-20.6,16.7-37.2,37.2-37.2
				c20.6,0,37.2,16.7,37.2,37.2c0,2.4-0.2,4.7-0.7,7l11.6-5.9V158.2z"/>
		</g>
		<path class="st0" d="M270,227.3c-1.7,0-3.3,0.6-4.6,1.6c-1.1-2.9-3.8-5.1-7.1-5.1c-1.7,0-3.3,0.6-4.6,1.6c-1-3-3.8-5.1-7.2-5.1
			c-1.6,0-3.2,0.5-4.4,1.4v-12.3c0-4.2-3.4-7.6-7.6-7.6c-4.2,0-7.6,3.4-7.6,7.6v41.4l-5.5-6.6l-0.6-0.7c-3.1-3.1-7.7-3-10.7,0
			c-3.1,3.1-3.1,8.1-0.1,11l17.7,21.3c9.8,11.6,20.2,12.7,23.7,12.7c0.7,0,1.2,0,1.2-0.1c25.1-1.7,25.1-26.6,25.1-26.8V235
			C277.6,230.8,274.2,227.3,270,227.3z M274.1,261.9c0,0.9-0.1,21.9-21.9,23.3c-0.5,0-11.4,1.1-22-11.4L212.9,253l-0.6-0.7
			c-1.7-1.7-1.7-4.5,0-6.2c1.7-1.7,4.1-1.7,5.8,0l9.1,10.7c0.5,0.6,1.2,0.8,1.9,0.5c0.7-0.2,1.1-0.9,1.1-1.6v-46.1
			c0-2.3,1.9-4.1,4.1-4.1c2.3,0,4.1,1.9,4.1,4.1v33.6c0,1,0.8,1.7,1.7,1.7c1,0,1.7-0.8,1.7-1.7v-15c0-2.2,2.1-4.3,4.4-4.3
			c2.3,0,4.1,1.9,4.1,4.1v14.8c0,1,0.8,1.7,1.7,1.7s1.7-0.8,1.7-1.7v-11.3c0-2.3,1.9-4.1,4.1-4.1c2.3,0,4.1,1.9,4.1,4.1v11.3
			c0,1,0.8,1.7,1.7,1.7c1,0,1.7-0.8,1.7-1.7V235c0-2.3,1.9-4.1,4.1-4.1s4.1,1.9,4.1,4.1V261.9z"/>
		<g>
			<path class="st0" d="M293.4,71.1H62.1c-7,0-12.7-5.7-12.7-12.7V24.7c0-7,5.7-12.7,12.7-12.7h231.2c7,0,12.7,5.7,12.7,12.7v33.7
				C306,65.4,300.4,71.1,293.4,71.1z M62.1,17.3c-4.1,0-7.4,3.3-7.4,7.4v33.7c0,4.1,3.3,7.4,7.4,7.4h231.2c4.1,0,7.4-3.3,7.4-7.4
				V24.7c0-4.1-3.3-7.4-7.4-7.4H62.1z"/>
		</g>
		<g>
			<path class="st0" d="M80.6,34.3c1.5,1.2,2.5,2.9,3,5h-4.7c-0.4-0.9-0.9-1.5-1.6-2c-0.7-0.5-1.6-0.7-2.6-0.7
				c-1.3,0-2.4,0.5-3.2,1.4c-0.8,1-1.2,2.2-1.2,3.9s0.4,2.9,1.2,3.8c0.8,1,1.9,1.4,3.2,1.4c1,0,1.9-0.2,2.6-0.7
				c0.7-0.5,1.3-1.2,1.6-2h4.7c-0.5,2.1-1.5,3.8-3,5c-1.5,1.3-3.5,1.9-5.9,1.9c-1.8,0-3.4-0.4-4.7-1.2c-1.4-0.8-2.4-1.9-3.2-3.3
				c-0.7-1.4-1.1-3.1-1.1-4.9c0-1.8,0.4-3.5,1.1-4.9c0.7-1.4,1.8-2.5,3.2-3.3c1.4-0.8,2.9-1.2,4.7-1.2C77.1,32.5,79,33.1,80.6,34.3z
				"/>
			<path class="st0" d="M90.1,31.8v19.4h-4.5V31.8H90.1z"/>
			<path class="st0" d="M92.9,30.8c0.5-0.4,1.1-0.7,1.9-0.7c0.8,0,1.5,0.2,1.9,0.7c0.5,0.4,0.7,1,0.7,1.7c0,0.7-0.2,1.2-0.7,1.7
				c-0.5,0.4-1.1,0.7-1.9,0.7c-0.8,0-1.5-0.2-1.9-0.7c-0.5-0.4-0.7-1-0.7-1.7C92.2,31.8,92.4,31.2,92.9,30.8z M97.1,36.6v14.6h-4.5
				V36.6H97.1z"/>
			<path class="st0" d="M111,38c1.3,1,2.1,2.5,2.4,4.3h-4.7c-0.1-0.6-0.4-1.1-0.9-1.5c-0.4-0.4-1-0.5-1.7-0.5
				c-0.8,0-1.4,0.3-1.9,0.9c-0.5,0.6-0.8,1.5-0.8,2.7s0.3,2.1,0.8,2.7c0.5,0.6,1.2,0.9,1.9,0.9c0.7,0,1.2-0.2,1.7-0.5
				c0.4-0.4,0.7-0.8,0.9-1.5h4.7c-0.3,1.8-1.1,3.2-2.4,4.3c-1.3,1-2.9,1.6-4.7,1.6c-1.4,0-2.7-0.3-3.8-0.9c-1.1-0.6-2-1.5-2.6-2.6
				c-0.6-1.1-0.9-2.5-0.9-4c0-1.5,0.3-2.9,0.9-4s1.5-2,2.6-2.6c1.1-0.6,2.4-0.9,3.8-0.9C108.2,36.4,109.8,36.9,111,38z"/>
			<path class="st0" d="M124.1,51.2l-4.4-6.2v6.2h-4.5V31.8h4.5v10.7l4.4-5.9h5.3l-5.9,7.3l6,7.3H124.1z"/>
			<path class="st0" d="M148.6,38.1c1,1.1,1.5,2.7,1.5,4.6v8.5h-4.5v-8c0-1-0.3-1.7-0.8-2.3c-0.5-0.6-1.2-0.8-2.1-0.8
				c-0.9,0-1.6,0.3-2.2,0.9c-0.5,0.6-0.8,1.4-0.8,2.5v7.8h-4.5V31.8h4.5v7.5c0.4-0.9,1-1.6,1.9-2.1c0.8-0.5,1.8-0.8,2.9-0.8
				C146.3,36.4,147.7,37,148.6,38.1z"/>
			<path class="st0" d="M166.3,44.7h-10.2c0.1,1.1,0.3,1.9,0.8,2.4c0.5,0.5,1.2,0.7,1.9,0.7c0.7,0,1.2-0.2,1.7-0.5
				c0.4-0.3,0.7-0.8,0.9-1.3h4.7c-0.2,1-0.6,2-1.3,2.8c-0.6,0.8-1.5,1.5-2.5,1.9s-2.1,0.7-3.3,0.7c-1.4,0-2.7-0.3-3.8-0.9
				c-1.1-0.6-2-1.5-2.6-2.6c-0.6-1.1-0.9-2.5-0.9-4c0-1.5,0.3-2.9,0.9-4s1.5-2,2.6-2.6c1.1-0.6,2.4-0.9,3.8-0.9
				c1.5,0,2.7,0.3,3.8,0.9c1.1,0.6,2,1.4,2.6,2.5c0.6,1.1,0.9,2.3,0.9,3.7C166.5,43.9,166.4,44.3,166.3,44.7z M161.2,40.7
				c-0.5-0.5-1.2-0.7-2-0.7c-0.8,0-1.5,0.2-2,0.7c-0.5,0.5-0.8,1.2-0.9,2.2h5.7C161.9,41.9,161.7,41.1,161.2,40.7z"/>
			<path class="st0" d="M174.9,37.2c0.9-0.5,1.8-0.8,2.9-0.8v4.8h-1.3c-1.2,0-2.1,0.3-2.8,0.8c-0.7,0.5-1,1.4-1,2.6v6.7h-4.5V36.6
				h4.5v2.8C173.3,38.4,174,37.7,174.9,37.2z"/>
			<path class="st0" d="M192.9,44.7h-10.2c0.1,1.1,0.3,1.9,0.8,2.4c0.5,0.5,1.2,0.7,1.9,0.7c0.7,0,1.2-0.2,1.7-0.5
				c0.4-0.3,0.7-0.8,0.9-1.3h4.7c-0.2,1-0.6,2-1.3,2.8c-0.6,0.8-1.5,1.5-2.5,1.9s-2.1,0.7-3.3,0.7c-1.4,0-2.7-0.3-3.8-0.9
				c-1.1-0.6-2-1.5-2.6-2.6c-0.6-1.1-0.9-2.5-0.9-4c0-1.5,0.3-2.9,0.9-4s1.5-2,2.6-2.6c1.1-0.6,2.4-0.9,3.8-0.9
				c1.5,0,2.7,0.3,3.8,0.9c1.1,0.6,2,1.4,2.6,2.5c0.6,1.1,0.9,2.3,0.9,3.7C193.1,43.9,193,44.3,192.9,44.7z M187.8,40.7
				c-0.5-0.5-1.2-0.7-2-0.7c-0.8,0-1.5,0.2-2,0.7c-0.5,0.5-0.8,1.2-0.9,2.2h5.7C188.5,41.9,188.3,41.1,187.8,40.7z"/>
			<path class="st0" d="M207.9,47.4v3.9h-2c-1.7,0-3-0.4-4-1.3c-1-0.8-1.4-2.3-1.4-4.2v-5.4h-2v-3.8h2V33h4.5v3.6h2.9v3.8h-2.9v5.5
				c0,0.6,0.1,1,0.4,1.2c0.2,0.2,0.6,0.3,1.2,0.3H207.9z"/>
			<path class="st0" d="M220.6,37.3c1.1,0.6,2,1.5,2.7,2.6c0.7,1.1,1,2.5,1,4s-0.3,2.9-1,4c-0.7,1.1-1.6,2-2.7,2.6
				c-1.1,0.6-2.4,0.9-3.9,0.9c-1.5,0-2.8-0.3-3.9-0.9c-1.2-0.6-2.1-1.5-2.7-2.6c-0.7-1.1-1-2.5-1-4s0.3-2.8,1-4
				c0.7-1.1,1.6-2,2.7-2.6c1.2-0.6,2.5-0.9,3.9-0.9C218.2,36.4,219.5,36.7,220.6,37.3z M214.6,41.2c-0.6,0.6-0.9,1.5-0.9,2.7
				c0,1.2,0.3,2.1,0.9,2.7c0.6,0.6,1.3,0.9,2.2,0.9c0.9,0,1.6-0.3,2.2-0.9c0.6-0.6,0.9-1.5,0.9-2.7c0-1.2-0.3-2.1-0.9-2.7
				c-0.6-0.6-1.3-0.9-2.2-0.9C215.9,40.3,215.2,40.6,214.6,41.2z"/>
			<path class="st0" d="M240.6,37.8c1.1,0.9,1.8,2.2,2.1,3.7h-4.2c-0.1-0.6-0.4-1.1-0.8-1.4c-0.4-0.3-1-0.5-1.6-0.5
				c-0.5,0-0.9,0.1-1.2,0.3c-0.3,0.2-0.4,0.5-0.4,0.9c0,0.5,0.2,0.8,0.7,1c0.5,0.2,1.2,0.5,2.3,0.7c1.1,0.3,2,0.5,2.8,0.8
				c0.7,0.3,1.3,0.7,1.9,1.3c0.5,0.6,0.8,1.4,0.8,2.5c0,0.8-0.2,1.6-0.7,2.2c-0.5,0.6-1.1,1.2-2,1.5c-0.9,0.4-1.9,0.6-3,0.6
				c-2,0-3.6-0.4-4.7-1.3c-1.2-0.9-1.9-2.1-2.2-3.8h4.3c0.1,0.6,0.3,1.1,0.8,1.4c0.5,0.3,1.1,0.5,1.8,0.5c0.5,0,0.9-0.1,1.2-0.4
				c0.3-0.2,0.4-0.5,0.4-0.9c0-0.5-0.2-0.9-0.7-1.1c-0.5-0.2-1.3-0.5-2.3-0.7c-1.1-0.2-2-0.5-2.7-0.7c-0.7-0.3-1.3-0.7-1.8-1.3
				c-0.5-0.6-0.8-1.4-0.8-2.4c0-1.3,0.5-2.4,1.5-3.2c1-0.8,2.4-1.2,4.2-1.2C238,36.4,239.5,36.9,240.6,37.8z"/>
			<path class="st0" d="M253.2,47.4v3.9h-2c-1.7,0-3-0.4-4-1.3c-1-0.8-1.4-2.3-1.4-4.2v-5.4h-2v-3.8h2V33h4.5v3.6h2.9v3.8h-2.9v5.5
				c0,0.6,0.1,1,0.4,1.2c0.2,0.2,0.6,0.3,1.2,0.3H253.2z"/>
			<path class="st0" d="M263.6,37.2c0.8,0.5,1.4,1.2,1.8,2.1v-2.6h4.5v14.6h-4.5v-2.6c-0.4,0.9-1,1.6-1.8,2.1
				c-0.8,0.5-1.8,0.8-2.9,0.8c-1.2,0-2.3-0.3-3.2-0.9c-1-0.6-1.7-1.5-2.3-2.6c-0.6-1.1-0.8-2.5-0.8-4c0-1.5,0.3-2.9,0.8-4
				c0.6-1.1,1.3-2,2.3-2.6c1-0.6,2-0.9,3.2-0.9C261.8,36.4,262.8,36.6,263.6,37.2z M259.8,41.3c-0.6,0.6-0.9,1.5-0.9,2.6
				s0.3,2,0.9,2.6c0.6,0.6,1.4,0.9,2.3,0.9c0.9,0,1.7-0.3,2.3-1c0.6-0.6,0.9-1.5,0.9-2.6c0-1.1-0.3-2-0.9-2.6c-0.6-0.6-1.4-1-2.3-1
				C261.2,40.3,260.4,40.6,259.8,41.3z"/>
			<path class="st0" d="M279.1,37.2c0.9-0.5,1.8-0.8,2.9-0.8v4.8h-1.3c-1.2,0-2.1,0.3-2.8,0.8c-0.7,0.5-1,1.4-1,2.6v6.7h-4.5V36.6
				h4.5v2.8C277.5,38.4,278.2,37.7,279.1,37.2z"/>
			<path class="st0" d="M291.6,47.4v3.9h-2c-1.7,0-3-0.4-4-1.3c-1-0.8-1.4-2.3-1.4-4.2v-5.4h-2v-3.8h2V33h4.5v3.6h2.9v3.8h-2.9v5.5
				c0,0.6,0.1,1,0.4,1.2s0.6,0.3,1.2,0.3H291.6z"/>
		</g>
	</g>
	<g>
		<path class="st1" d="M249.3,218c0.9,0.4,1.9,0,2.3-0.9c1-2.3,1.4-4.7,1.4-7.2c0-10.3-8.4-18.8-18.8-18.8s-18.8,8.4-18.8,18.8
			c0,4.5,1.6,8.8,4.5,12.2c0.3,0.4,0.8,0.6,1.3,0.6c0.4,0,0.8-0.1,1.1-0.4c0.7-0.6,0.8-1.7,0.2-2.5c-2.4-2.8-3.7-6.3-3.7-9.9
			c0-8.4,6.9-15.3,15.3-15.3c8.4,0,15.3,6.9,15.3,15.3c0,2-0.4,4-1.2,5.9C248,216.6,248.4,217.6,249.3,218z"/>
		<path class="st1" d="M220.2,236.6c0.3,0.1,0.5,0.2,0.8,0.2c0.6,0,1.2-0.3,1.5-0.9c0.4-0.9,0.1-1.9-0.7-2.3
			c-8.9-4.6-14.4-13.8-14.4-23.8c0-14.8,12-26.8,26.8-26.8s26.8,12,26.8,26.8c0,3-0.5,6-1.5,8.8c-0.3,0.9,0.2,1.9,1.1,2.2
			c0.9,0.3,1.9-0.2,2.2-1.1c1.1-3.2,1.7-6.5,1.7-10c0-16.7-13.6-30.3-30.3-30.3s-30.3,13.6-30.3,30.3
			C203.9,221,210.2,231.3,220.2,236.6z"/>
	</g>
</g>
</svg>
